<?xml version="1.0" standalone="no"?>
<!DOCTYPE svg PUBLIC "-//W3C//DTD SVG 20010904//EN"
 "http://www.w3.org/TR/2001/REC-SVG-20010904/DTD/svg10.dtd">
<svg version="1.0" xmlns="http://www.w3.org/2000/svg"
 width="500.000000pt" height="500.000000pt" viewBox="0 0 500.000000 500.000000"
 preserveAspectRatio="xMidYMid meet">

<g transform="translate(0.000000,500.000000) scale(0.100000,-0.100000)"
fill="#000000" stroke="none">
<path d="M2581 3328 c-5 -13 -57 -146 -115 -297 -59 -151 -104 -281 -101 -289
3 -7 14 -12 26 -10 17 2 40 53 135 298 62 162 112 301 109 308 -8 21 -45 14
-54 -10z m36 -10 c-3 -7 -53 -137 -111 -288 -59 -151 -109 -276 -111 -279 -22
-21 -1 44 91 280 58 151 108 280 111 287 3 6 10 12 15 12 6 0 8 -6 5 -12z"/>
<path d="M2223 3153 c-69 -54 -123 -103 -123 -113 0 -9 48 -54 107 -101 151
-119 141 -113 158 -99 8 7 15 18 15 24 0 6 -45 47 -100 90 -55 42 -100 81
-100 86 0 5 45 44 100 86 55 43 100 83 100 89 0 12 -20 35 -29 35 -4 0 -61
-44 -128 -97z m137 69 c0 -5 -47 -46 -105 -92 -58 -46 -105 -86 -105 -90 0 -4
47 -44 105 -90 91 -72 119 -100 100 -100 -14 0 -235 184 -232 193 3 11 218
185 230 186 4 1 7 -3 7 -7z"/>
<path d="M2630 3235 c-17 -20 -1 -37 114 -125 47 -36 85 -67 85 -70 0 -3 -46
-41 -102 -85 -55 -44 -102 -85 -105 -92 -2 -6 5 -16 16 -22 15 -8 39 6 140 85
75 59 122 103 122 114 0 16 -210 193 -244 206 -7 3 -19 -2 -26 -11z m139 -97
c61 -48 111 -92 111 -98 0 -9 -210 -181 -231 -188 -32 -12 6 25 102 101 l110
88 -110 86 c-61 48 -111 91 -111 96 0 15 14 6 129 -85z"/>
<path d="M1960 2553 c-72 -37 -88 -139 -30 -193 15 -14 59 -35 98 -48 80 -26
105 -44 100 -75 -6 -44 -94 -60 -173 -32 -22 8 -41 15 -42 15 -5 0 -34 -62
-31 -65 35 -29 143 -47 210 -35 96 18 140 79 118 162 -12 44 -47 71 -127 99
-103 35 -129 69 -81 103 28 20 73 20 128 1 24 -8 44 -14 45 -13 1 2 10 17 18
34 16 31 16 31 -11 44 -15 7 -63 15 -107 17 -63 3 -87 0 -115 -14z"/>
<path d="M2740 2560 c-44 -11 -70 -43 -70 -86 0 -31 -3 -34 -30 -34 -28 0 -30
-2 -30 -40 0 -38 2 -40 30 -40 l30 0 0 -120 0 -120 40 0 40 0 0 120 0 120 60
0 60 0 0 40 0 40 -60 0 c-52 0 -60 2 -60 19 0 27 20 39 70 43 43 3 45 5 48 36
l3 32 -48 -1 c-26 -1 -64 -5 -83 -9z"/>
<path d="M2940 2485 c0 -43 -1 -45 -30 -45 -28 0 -30 -2 -30 -39 0 -36 3 -40
28 -43 27 -3 27 -3 32 -100 6 -125 12 -132 120 -136 l80 -4 0 41 0 41 -44 0
c-63 0 -76 17 -76 96 l0 64 60 0 60 0 0 40 0 40 -60 0 -60 0 0 45 0 45 -40 0
-40 0 0 -45z"/>
<path d="M2340 2428 c-73 -38 -107 -108 -90 -185 32 -139 227 -177 314 -60 30
40 30 153 0 194 -26 36 -99 73 -144 73 -20 0 -56 -10 -80 -22z m141 -84 c35
-37 33 -98 -4 -130 -69 -59 -165 2 -143 91 17 66 100 89 147 39z"/>
<path d="M1932 1924 c-17 -12 -22 -24 -20 -47 3 -27 10 -36 51 -55 26 -12 47
-29 47 -37 0 -20 -40 -28 -72 -16 -21 8 -28 7 -32 -6 -9 -22 11 -33 59 -33 56
0 87 23 83 63 -2 23 -11 35 -33 46 -74 38 -78 42 -62 58 11 11 22 13 50 5 28
-8 37 -7 41 4 12 32 -73 46 -112 18z"/>
<path d="M2250 1836 c0 -100 1 -106 20 -106 20 0 21 5 18 102 -3 89 -5 103
-20 106 -16 3 -18 -7 -18 -102z"/>
<path d="M2590 1915 c0 -10 7 -15 18 -13 21 4 19 22 -2 26 -10 2 -16 -3 -16
-13z"/>
<path d="M2480 1900 c0 -11 -7 -20 -15 -20 -8 0 -15 -9 -15 -20 0 -11 7 -20
15 -20 11 0 15 -11 15 -43 0 -52 13 -67 57 -67 26 0 33 4 33 20 0 15 -7 20
-25 20 -22 0 -25 4 -25 35 0 31 3 35 25 35 18 0 25 5 25 20 0 15 -7 20 -25 20
-18 0 -25 5 -25 20 0 13 -7 20 -20 20 -13 0 -20 -7 -20 -20z"/>
<path d="M2096 1859 c-56 -44 -19 -129 56 -129 69 0 101 77 53 125 -30 31 -73
32 -109 4z m78 -22 c38 -27 -2 -95 -41 -71 -25 16 -29 55 -7 71 10 7 21 13 24
13 3 0 14 -6 24 -13z"/>
<path d="M2310 1817 c0 -36 5 -68 12 -75 7 -7 36 -12 65 -12 l53 0 0 75 c0 68
-2 75 -20 75 -18 0 -20 -7 -20 -60 0 -57 -1 -60 -24 -60 -28 0 -36 16 -36 76
0 32 -4 44 -15 44 -12 0 -15 -14 -15 -63z"/>
<path d="M2590 1806 c0 -70 2 -76 20 -76 19 0 21 5 18 72 -2 60 -6 73 -20 76
-16 3 -18 -6 -18 -72z"/>
<path d="M2670 1862 c-31 -25 -32 -88 -1 -113 23 -19 65 -24 96 -13 45 18 48
111 5 134 -29 16 -76 12 -100 -8z m84 -34 c13 -19 14 -25 2 -43 -18 -26 -40
-30 -60 -10 -20 21 -20 39 0 59 21 22 40 20 58 -6z"/>
<path d="M2820 1805 c0 -68 2 -75 20 -75 18 0 20 7 20 60 0 51 3 60 18 60 30
0 42 -21 42 -72 0 -36 4 -48 15 -48 12 0 15 14 15 65 0 75 -10 85 -84 85 l-46
0 0 -75z"/>
<path d="M2991 1866 c-22 -26 -9 -58 28 -71 52 -17 53 -38 2 -33 -25 2 -42 -1
-45 -8 -9 -24 68 -33 105 -14 37 20 15 68 -38 84 -35 11 -27 26 13 26 50 0 39
24 -13 28 -26 2 -44 -2 -52 -12z"/>
</g>
</svg>
